# xmcd CD database file
#
# Track frame offsets:
#	150
#	12835
#	32329
#	53596
#	71438
#	93753
#	114628
#	138166
#	159054
#	175838
#	192828
#	215847
#	237710
#	244917
#	258041
#	280321
#	298491
#
# Disc length: 4249 seconds
#
# Revision: 1
# Processed by: cddbd v1.5.2PL0 Copyright (c) Steve Scherf et al.
# Submitted via: CDex 1.70beta2
#
DISCID=ed109711
DTITLE=Billy`S Band - Весенние Обострения
DYEAR=2007
DGENRE=Jazz
TTITLE0=Счастье Есть /Новик/
TTITLE1=Время Которое Нужно Убить /Новик/
TTITLE2=Ни Шагу Из Дома /Новик - С.Резников/
TTITLE3=Снежная Королева /Новик - С.Резников/
TTITLE4=Передай Привет /Песня О Погибшем Брате/ /Новик - С.Резников/
TTITLE5=Невиновен /Новик/
TTITLE6=Последний День Лета /Новик/
TTITLE7=Я Не Стеклянный /Новик/
TTITLE8=Ляг На Землю /Новик/
TTITLE9=Встречай Меня Москва! /Новик - С.Резников - Матезиус/
TTITLE10=Купчино - Столица Мира /Прощальная/ /Новик - С.Резников/
TTITLE11=Простим Друг Друга /Новик/
TTITLE12=29 Марта /Инструментал/ /Жидких/
TTITLE13=Счастье Есть II /Чернозём/ /Новик/
TTITLE14=Весенние Обострения /Новик/
TTITLE15=Бонус: Голос Брехуна /Совместно С Каста/ /Влад - Шым/
TTITLE16=Бонус: Время Которое Нужно Убить /Ремикс Влади/ /Новик/
EXTD=YEAR: 2007
EXTT0=
EXTT1=
EXTT2=
EXTT3=
EXTT4=
EXTT5=
EXTT6=
EXTT7=
EXTT8=
EXTT9=
EXTT10=
EXTT11=
EXTT12=
EXTT13=
EXTT14=
EXTT15=
EXTT16=
PLAYORDER=
